<svg xmlns="http://www.w3.org/2000/svg" height="635pt" viewBox="-19 -62 635.99985 635" width="635pt"><path d="m377.367188 249.835938h44.738281c4.828125 0 8.738281-3.910157 8.738281-8.738282 0-4.820312-3.910156-8.734375-8.738281-8.734375h-44.738281c-4.828126 0-8.738282 3.914063-8.738282 8.734375 0 4.828125 3.910156 8.738282 8.738282 8.738282zm0 0"></path><path d="m71.777344 367.855469c22.253906 18.691406 27.972656 50.613281 13.59375 75.871093-1.542969 2.699219-1.527344 6.019532.039062 8.710938 1.558594 2.6875 4.4375 4.34375 7.546875 4.34375 2.625.007812 5.121094-1.128906 6.835938-3.121094 5.445312-6.472656 12.203125-11.714844 19.835937-15.367187v19.824219c-.050781 13.585937 5.308594 26.632812 14.890625 36.261718 9.574219 9.636719 22.59375 15.0625 36.179688 15.085938h276.976562c28.359375-.027344 51.351563-22.988282 51.410157-51.347656v-340.886719c-.042969-13.570313-5.496094-26.566407-15.144532-36.113281-9.644531-9.546876-22.695312-14.859376-36.269531-14.769532h-3.5625l6.773437-8.609375c2.8125-3.519531 2.550782-8.585937-.613281-11.792969l-44.90625-45.25c-1.695312-1.527343-3.855469-2.4375-6.132812-2.601562v-.398438h-179.746094v.398438c-2.367187-.089844-4.660156.835938-6.304687 2.546875l-45.132813 45.1875c-3.15625 3.261719-3.410156 8.355469-.585937 11.910156l6.800781 8.609375h-3.5625c-13.535157-.078125-26.546875 5.246094-36.132813 14.804688-9.589844 9.550781-14.96875 22.535156-14.9375 36.078125v243.710937c-13.054687 1.707032-26.308594-.875-37.769531-7.367187-3.949219-2.230469-8.953125-1.105469-11.566406 2.605469-2.601563 3.691406-1.957031 8.757812 1.484375 11.675781zm375.894531-284.03125c8.941406-.097657 17.546875 3.375 23.917969 9.640625 6.375 6.269531 9.976562 14.820312 10.023437 23.765625v340.882812c-.050781 18.714844-15.222656 33.863281-33.941406 33.878907h-129.578125v-351.691407l29.511719 29.59375c1.617187 1.636719 3.824219 2.558594 6.132812 2.558594.148438 0 .28125 0 .4375-.015625 2.4375-.039062 4.746094-1.132812 6.320313-2.992188l69.46875-85.621093zm-138.484375 19.960937-71.71875-88.613281h143.4375zm90.402344-83.921875 32.765625 32.753907-79.347657 98.050781-32.765624-32.765625zm-180.8125 0 79.355468 98.039063-32.769531 32.765625-79.34375-98.050781zm-81.671875 97.359375c-.035157-8.902344 3.5-17.445312 9.8125-23.71875 6.316406-6.28125 14.875-9.761718 23.78125-9.679687h17.707031l69.480469 85.628906c1.570312 1.890625 3.878906 3.023437 6.335937 3.113281.15625.007813.304688-.050781.460938-.050781 2.347656-.007813 4.59375-.941406 6.261718-2.589844l29.675782-29.625v351.691407h-129.921875c-8.953125-.019532-17.53125-3.605469-23.828125-9.960938-6.304688-6.355469-9.820313-14.960938-9.765625-23.914062v-25.253907c13.292969-1.964843 26.867187.570313 38.554687 7.210938 3.90625 2.238281 8.871094 1.105469 11.425782-2.605469 2.570312-3.714844 1.882812-8.78125-1.589844-11.675781-22.253906-18.691407-27.976563-50.613281-13.601563-75.871094 2.230469-3.929687 1.101563-8.910156-2.609375-11.492187-3.664062-2.582032-8.699218-1.910157-11.546875 1.550781-5.691406 6.6875-12.714843 12.097656-20.632812 15.898437zm9.964843 253.089844c-1.871093 15.457031.9375 31.121094 8.054688 44.960938-15.453125-1.875-31.113281.933593-44.957031 8.054687 1.867187-15.457031-.933594-31.117187-8.054688-44.957031 15.453125 1.871094 31.113281-.933594 44.957031-8.050782zm0 0"></path><path d="m593.125 163.097656c-12.070312-10.121094-15.1875-27.414062-7.40625-41.109375 2.230469-3.929687 1.09375-8.910156-2.617188-11.488281-3.710937-2.574219-8.769531-1.902344-11.675781 1.558594-10.117187 12.070312-27.414062 15.191406-41.109375 7.414062-3.929687-2.238281-8.914062-1.101562-11.492187 2.609375-2.578125 3.707031-1.902344 8.78125 1.566406 11.679688 12.066406 10.117187 15.1875 27.414062 7.40625 41.109375-2.230469 3.929687-1.097656 8.914062 2.613281 11.488281 3.714844 2.578125 8.773438 1.902344 11.679688-1.5625 10.117187-12.066406 27.414062-15.1875 41.109375-7.410156 3.929687 2.234375 8.910156 1.101562 11.488281-2.613281 2.578125-3.710938 1.902344-8.773438-1.5625-11.675782zm-43.59375-4.242187c.0625-6.023438-1.011719-11.996094-3.179688-17.613281h.054688c6.003906-.003907 11.957031-1.085938 17.578125-3.195313-.003906 6.019531 1.066406 11.992187 3.171875 17.628906-6.015625-.007812-11.988281 1.070313-17.625 3.179688zm0 0"></path><path d="m78.550781 492.15625c2.484375-3.773438 1.6875-8.820312-1.84375-11.636719-12.3125-9.832031-15.84375-27.046875-8.390625-40.925781 2.132813-3.976562.886719-8.9375-2.886718-11.421875-3.773438-2.492187-8.820313-1.691406-11.644532 1.84375-9.824218 12.304687-27.042968 15.835937-40.917968 8.390625-3.980469-2.136719-8.933594-.886719-11.425782 2.886719-2.484375 3.773437-1.6875 8.820312 1.84375 11.636719 12.308594 9.824218 15.84375 27.042968 8.390625 40.917968-2.132812 3.984375-.886719 8.9375 2.886719 11.429688 3.773438 2.488281 8.820312 1.6875 11.640625-1.84375 9.824219-12.308594 27.039063-15.839844 40.917969-8.390625 3.984375 2.136719 8.9375.882812 11.429687-2.886719zm-45.527343-14.855469c-.140626-6.015625-1.359376-11.960937-3.601563-17.542969 6.019531-.140624 11.964844-1.359374 17.546875-3.605468.140625 6.019531 1.359375 11.960937 3.597656 17.550781-6.015625.136719-11.960937 1.355469-17.542968 3.597656zm0 0"></path></svg>